# xmcd CD database file
#
# Track frame offsets:
#	150
#	12796
#	29075
#	44037
#	55924
#	69944
#	86556
#	102837
#	116289
#	129178
#	144284
#	157490
#	167490
#	183492
#	194404
#
# Disc length: 2818 seconds
#
# Revision: 1
# Processed by: cddbd v1.5.1PL2 Copyright (c) Steve Scherf et al.
# Submitted via: jetAudio 5
#
DISCID=cb0b000f
DTITLE=John Williamson - We Love This Country
DYEAR=1900
DGENRE=
TTITLE0=We Love This Country
TTITLE1=Campfire on the Road
TTITLE2=On the Improve
TTITLE3=Wobbly Boot Hotel
TTITLE4=Cape York Peninsula
TTITLE5=Vegie Bill
TTITLE6=Welcome All to Broome
TTITLE7=Singing in the Rain
TTITLE8=Alice Springs
TTITLE9=You Come Back to Tassie
TTITLE10=Bush Telegraph
TTITLE11=Pickin on Murray
TTITLE12=Around Jindabyne
TTITLE13=Beachcomber from Wollongong
TTITLE14=Old Farts in Caravan Parks
EXTD=
EXTT0=
EXTT1=
EXTT2=
EXTT3=
EXTT4=
EXTT5=
EXTT6=
EXTT7=
EXTT8=
EXTT9=
EXTT10=
EXTT11=
EXTT12=
EXTT13=
EXTT14=
PLAYORDER=
